<?xml version="1.0" encoding="utf-8"?>
<!-- Generator: Adobe Illustrator 19.2.1, SVG Export Plug-In . SVG Version: 6.00 Build 0)  -->
<svg version="1.1" id="Layer_1" xmlns="http://www.w3.org/2000/svg" xmlns:xlink="http://www.w3.org/1999/xlink" x="0px" y="0px"
	 viewBox="0 0 633.3 312" style="enable-background:new 0 0 633.3 312;" xml:space="preserve">
<style type="text/css">
	.st0{fill:#FFFFFF;}
</style>
<path class="st0" d="M211.6,163l0-0.3l0.2-0.4l-0.3,0l-5.4-41.2l0.5-0.3l-0.5-0.1l0-0.3l-0.3,0.2L138.4,109l1.2-0.6l-1.9,0.4l0-0.1
	l-0.1,0l-21.4-58.6l0-0.1l0,0l0.6-2.7l-0.1,0.3l7.5-40.5l0.3-0.5l-0.2,0l0.2-1.1l-0.8,1.2l-60.1,6.7l0.2-0.6l-0.7,0.6l-0.1-0.1
	L63,13.5l-0.8,0.1l0.4,0.2L3.6,58.7l-0.2,0.2l24.4,39.2l-0.3,0.2l0.3,0.1l-0.3,0.7l0.6-0.5l3.5,8.5l-0.1,0l0.3,0.4L5,193.9
	l78.3-11.4l-38.8,57.1h-0.2l0.1,0.2l-0.2,0.4h0.3l6.2,28.3l-0.2,0.2l0.3,0.1l0.1,0.4L51,269l53.4,39.5l0,0l0.5,0.4v-11.6l0.4,1
	l-0.3-2.2l0.2,0.1l-0.2-0.6l25.6-33.6l15.5-10.9l0.1,0l0.1-0.2l0.5-0.3l-0.3-0.1l16.6-43.2l0.5,0.3l-0.2-0.5l26.4-2.1l0.2,0.2
	l0.1-0.2l0.6,0l-0.4-0.3l21.3-41.8L211.6,163z M129.9,261.9l-25,32.8l0.3-36.5l0.1-15.6l8.3,6.5L129.9,261.9z M178.6,167.6
	l-30.3,4.9l-1.1-6.9l-0.4-2.3l0,0l-0.1-0.7l61,0.4L178.6,167.6z M147.6,172.1l-0.3-0.2l0.3,0.7l-0.3,0l0.1,0.1l-22.8,8.1l5.7-4.8
	l15.8-13.2l0.5,3.3L147.6,172.1z M100.8,83.5l-10.9,24.6l14.9-70.4l10.8,12.5L100.8,83.5z M84.4,179.1l4.8-67.8l4.3,2l7.7,3.6
	l-13.1,48.5L84.4,179.1z M85.1,178.9l16.7-61.7l9.9,5.2l-21.4,45.3L85.1,178.9z M112,123.3l6.2,59.3l-33.8-0.8l12.5-26.6L112,123.3z
	 M118.7,182.6l-5.5-52.8l9.5,51.7l-1.3,0.4L118.7,182.6z M123.7,135.4l-11.1-13l24.6-12.7l8.6,51.7L123.7,135.4z M112.4,121.8
	l-0.1-0.6l-0.3,0.6l-0.4-0.5l0.1,0.5l-9.2-4.8l32.8-7L112.4,121.8z M93.7,112.7l-4.3-2L115,52.9l-13.6,63.4L93.7,112.7z M101.7,49.5
	l-12.9,61l-0.1,0l0,0.1L28.9,98l75.3-60.2L101.7,49.5z M118,183.3l-15.8,41.2L97.1,238l-12.8-55.6L118,183.3z M103.9,292.9
	l-19.2-52.7l12-0.8l4.3,32.3L103.9,292.9z M97.4,238.9l4.4-11.5l15.4-40.3l-12.1,53l-0.3,1.5l-0.1-0.1l0,0.2l-3.7-1.4L97.4,238.9z
	 M108,230.2l10.6-46.7l43.5,23.6l-56.7,34.3L108,230.2z M155.5,202.7l-3.5-1.9l-32.6-17.7l0.8-0.2l1.8-0.5l-0.2,0.2l1.3-0.4l0,0.2
	l0.2-0.2l11.3,7.2L155.5,202.7z M123.3,181.1l-10.7-57.9l33.3,38.9l-0.5,0.4l0.1,0l-14.2,11.8L123.3,181.1z M96.6,238.8l-12,0.8
	l-0.4-54.7l12.3,53.7L96.6,238.8z M104.1,295l-34.1-17.2l-18.4-9.3l32.7-28.1L104.1,295z M104.3,291.4l-2.7-19.8l-4.3-32l4,1.5
	l3,1.1l-0.1,0.1l0.4,0.1l-0.1,0.4l0.1-0.1l-0.2,30.2L104.3,291.4z M102,116.4l13.8-64.2l0.2-1l21.1,57.7L102,116.4z M63.4,14.2
	l40.7,22.8L28.9,97.2l9.5-22.9L63.4,14.2z M41.2,101.2l43.7,9.1l-52.7-3.1l-3.5-8.6L41.2,101.2z M32.6,107.8l56,3.3l-0.5,2.5
	l0.5-1.1l-4.8,67.6l-0.2-0.7l0,1.8l-33.2-47.7L32.6,107.8z M54,270.5l50.3,25.3l0,0.7l0,0v11.2L54,270.5z M162.1,206.3l-38.3-24.5
	l17.7-6.3l6.4-2.3l6.8,15.7L162.1,206.3z M210.9,162.4l-15.4-0.1l-48.3-0.3l23.2-16.1l35.1-24.4L210.9,162.4z M146.6,161.8
	L146.6,161.8L146.6,161.8l-8.7-52.2l67.2,11.6L146.6,161.8z M123.4,8.5l-7.6,40.9L105,37.1l0.1-0.1l-0.1-0.1l4.8-7.4L123.4,8.5z
	 M109.5,28.9l-4.9,7.6l-0.1-0.2l0,0.2L64.2,14l59.2-6.6L109.5,28.9z M62.5,14.7L37.8,74.2l-9.7,23.3l-24-38.5L62.5,14.7z
	 M32.1,108.1l18.4,26.4l32.9,47.3L5.9,193.2L32.1,108.1z M83.6,183.1l0.1,13l0.3,43.5H45.2L83.6,183.1z M45,240.2h38.5l-32.4,27.8
	L45,240.2z M145.2,251l-14.9,10.5l-16-12.6l-8-6.3l6.5,1.4L145.2,251z M145.7,250.5l-33.1-7.2l-6.8-1.5l56.4-34.1L145.7,250.5z
	 M163.3,206.7l0.1-0.4l-0.5,0.3l-7.4-17l-6.8-15.8l40.2,30.9L163.3,206.7z M148.8,173l62-9.9l-21.1,41.4L148.8,173z"/>
<g>
	<g>
		<path class="st0" d="M174,118.1c0-10.3-6.3-19.2-15.2-23c-3-1.3-6.3-2-9.7-2h-29.4h-0.1l0.1,69.5h15.1v-19.6H146l9.6,19.6h16.5
			l-11.3-22.6C168.7,135.9,174,127.7,174,118.1z M158.9,118.1c0,5.4-4.4,9.8-9.8,9.8h-14.2v-19.6h14.2
			C154.5,108.4,158.9,112.7,158.9,118.1z"/>
		<path class="st0" d="M192.8,140.4V135L180,146.9l12.8,12.3v-5.4c12.2,0,19.5,10.6,19.5,21.4s-7.5,21.8-19.5,21.8
			c-13,0-19.5-11-19.5-21.8h-15.2c0,19.2,15.6,34.7,34.7,34.7s34.7-15.6,34.7-34.7C227.6,156,212,140.4,192.8,140.4z"/>
	</g>
</g>
<g>
	<path class="st0" d="M237.6,215.6V141h34.9c16.2,0,25.1,11,25.1,24.1c0,13-9,24-25.1,24h-19v26.6H237.6z M281.4,165
		c0-6.3-4.8-10.1-11.1-10.1h-16.8v20h16.8C276.6,175,281.4,171.2,281.4,165z"/>
	<path class="st0" d="M300.6,188.5c0-15.3,10.7-28.3,28.5-28.3c17.9,0,28.7,13,28.7,28.3S347.1,217,329.2,217
		C311.4,217,300.6,203.9,300.6,188.5z M343.1,188.5c0-8.4-4.9-15.7-13.9-15.7c-8.8,0-13.8,7.3-13.8,15.7c0,8.5,4.9,15.8,13.8,15.8
		C338.1,204.3,343.1,197,343.1,188.5z"/>
	<path class="st0" d="M365.4,215.6V141h14.2v74.7H365.4z"/>
	<path class="st0" d="M394,224c1.2,0.6,3.1,0.9,4.5,0.9c3.7,0,6.2-1,7.5-3.9l2-4.7L386,161.5h15.2l14.1,37.6l14.2-37.6h15.2
		l-25.4,62.9c-4,10.2-11.2,12.9-20.5,13.1c-1.6,0-5.3-0.3-6.9-0.9L394,224z"/>
	<path class="st0" d="M450,229.5l6.4-10.2c4.4,4.7,10.2,6.6,16.9,6.6c6.8,0,15-2.9,15-13.9v-5.3c-4.3,5.4-10.1,8.4-16.8,8.4
		c-13.4,0-23.8-9.4-23.8-27.4c0-17.7,10.2-27.5,23.8-27.5c6.5,0,12.4,2.7,16.8,8.3v-6.9h14.2V212c0,20.5-15.9,25.5-29.2,25.5
		C464.1,237.5,456.9,235.4,450,229.5z M488.3,196.5v-17.6c-2.5-3.5-7.6-6-12.2-6c-8.2,0-13.8,5.6-13.8,14.9s5.6,14.9,13.8,14.9
		C480.7,202.6,485.9,199.9,488.3,196.5z"/>
	<path class="st0" d="M511,188.5c0-15.7,11.6-28.3,28-28.3c16.2,0,27.1,12.1,27.1,29.7v3.4h-40.2c1,6.6,6.4,12.1,15.6,12.1
		c4.6,0,10.9-1.9,14.3-5.3l6.4,9.4c-5.4,4.9-13.9,7.5-22.3,7.5C523.4,217,511,205.9,511,188.5z M539,171.8
		c-8.8,0-12.6,6.2-13.2,11.5h26.6C552,178.2,548.4,171.8,539,171.8z"/>
	<path class="st0" d="M611.6,215.6v-32.7c0-7.5-3.9-10.1-10-10.1c-5.6,0-9.8,3.1-12.3,6.3v36.5h-14.2v-54.1h14.2v6.9
		c3.5-4,10.2-8.3,18.9-8.3c12,0,17.7,6.7,17.7,17.2v38.2H611.6z"/>
</g>
</svg>
